<?xml version="1.0" standalone="no"?>
<!DOCTYPE svg PUBLIC "-//W3C//DTD SVG 20010904//EN"
 "http://www.w3.org/TR/2001/REC-SVG-20010904/DTD/svg10.dtd">
<svg version="1.0" xmlns="http://www.w3.org/2000/svg"
 width="933.000000pt" height="821.000000pt" viewBox="0 0 933.000000 821.000000"
 preserveAspectRatio="xMidYMid meet">

<g transform="translate(0.000000,821.000000) scale(0.100000,-0.100000)"
fill="#000000" stroke="none">
<path d="M4734 8200 c-326 -35 -655 -187 -893 -415 -191 -182 -327 -394 -405
-632 l-28 -83 -609 0 -609 0 0 -345 0 -345 85 0 85 0 0 260 0 260 2545 0 2545
0 0 -2510 0 -2511 -260 3 -260 3 0 -87 0 -88 345 0 345 0 0 2680 0 2680 -608
0 -607 0 -30 88 c-55 164 -180 385 -285 504 -78 89 -192 193 -278 256 -98 70
-308 178 -422 215 -197 66 -437 90 -656 67z m441 -189 c397 -84 730 -323 928
-666 43 -74 117 -242 117 -265 0 -7 -433 -10 -1315 -10 l-1315 0 6 28 c21 81
111 257 191 369 205 291 559 505 923 558 124 18 345 12 465 -14z"/>
<path d="M1710 4872 l0 -1239 25 -23 c34 -32 87 -32 118 -2 l22 23 3 1154 2
1155 2300 -2 c1265 -2 2300 -6 2300 -10 0 -5 0 -1133 0 -2508 l0 -2500 -2300
0 -2299 0 -3 438 c-3 419 -4 438 -23 460 -29 33 -96 31 -124 -4 -21 -26 -21
-36 -21 -545 l0 -519 2473 0 2472 0 0 2680 0 2680 -2472 0 -2473 0 0 -1238z"/>
<path d="M2524 4466 c-36 -16 -58 -64 -45 -99 16 -42 43 -56 115 -59 l69 -3
22 -80 c48 -175 124 -333 233 -490 213 -305 577 -543 944 -619 468 -96 957 27
1318 332 254 216 425 490 510 820 l11 42 69 0 c62 0 70 2 89 26 29 37 27 85
-5 115 -26 24 -26 24 -259 24 -233 0 -233 0 -259 -24 -36 -34 -36 -92 0 -120
22 -17 41 -21 105 -21 58 0 79 -3 79 -13 0 -28 -54 -177 -95 -262 -73 -151
-152 -259 -276 -380 -276 -267 -595 -398 -969 -398 -164 0 -271 16 -420 65
-274 90 -515 261 -686 488 -91 119 -196 339 -228 473 l-6 27 74 0 c90 0 103 4
121 41 21 40 19 64 -9 96 l-24 28 -224 2 c-173 2 -230 0 -254 -11z"/>
<path d="M1735 3295 l-25 -24 0 -548 c0 -487 2 -551 16 -571 40 -58 124 -44
144 25 8 26 10 198 8 566 l-3 529 -28 24 c-37 31 -81 31 -112 -1z"/>
<path d="M3033 1601 c-51 -32 -56 -89 -11 -131 22 -20 30 -20 1160 -20 l1139
0 24 25 c35 34 33 78 -4 116 l-29 29 -1124 0 c-1091 0 -1124 -1 -1155 -19z"/>
</g>
</svg>
